                    ⬇ DOWNLOAD TORRENT FILE ⬇


                          is gd i7L8Gg


Paste in the address bar, enter point and bar in their spaces.

Cole na barra de endereços, insira ponto e barra nos respectivos espaços.
____________________________________________________________________________


The Vampire Diaries - Diários de um Vampiro - Portugues - Ingles Com legenda em Portugues
____________________________________________________________________________

22 Episodios com arquivo de Legendas separado. Usem o Media Player Classic,
 
http://baixa.ki/d52802

Caso elas não apareçam.
____________________________________________________________________________

General

The.Vampire.Diaries.S03E10.DVDRip.XviD.MP3.Dual.Audio.LC

Format                           : AVI
File size                        : 368 MiB (Media)
Duration                         : 42mn 24s (Media)
Overall bit rate                 : 1 212 Kbps (Media)


Video

Format                           : MPEG-4 Visual
Codec ID/Hint                    : DivX 5
Duration                         : 42mn 24s (Media)
Bit rate                         : 942 Kbps (Media)
Width                            : 624 pixels
Height                           : 336 pixels
Display aspect ratio             : 1.857 (Media)
Frame rate                       : 23.976 fps (Media)
Scan type                        : Progressive
Compression mode                 : Lossy
Stream size                      : 286 MiB (78%)

Audio #1 e Audio#2

Format                           : MPEG Audio
Mode extension                   : MS Stereo
Codec ID/Hint                    : MP3
Duration                         : 42mn 24s
Bit rate mode                    : Constant
Bit rate                         : 128 Kbps
Channel(s)                       : 2 channels
Sampling rate                    : 48.0 KHz
Compression mode                 : Lossy
Stream size                      : 38.8 MiB (11%)
Interleave, duration             : 42 ms (1.00 video frame)

____________________________________________________________________________

                      
 
                       SEMEEM A VONTADE!

               
                    
                      OBRIGADO POR BAIXAR!!